<?xml version="1.0" encoding="UTF-8" standalone="no"?>
<!-- Generator: Adobe Illustrator 18.1.1, SVG Export Plug-In . SVG Version: 6.00 Build 0)  -->

<svg
   xmlns:dc="http://purl.org/dc/elements/1.1/"
   xmlns:cc="http://creativecommons.org/ns#"
   xmlns:rdf="http://www.w3.org/1999/02/22-rdf-syntax-ns#"
   xmlns:svg="http://www.w3.org/2000/svg"
   xmlns="http://www.w3.org/2000/svg"
   xmlns:sodipodi="http://sodipodi.sourceforge.net/DTD/sodipodi-0.dtd"
   xmlns:inkscape="http://www.inkscape.org/namespaces/inkscape"
   version="1.1"
   id="Слой_1"
   x="0px"
   y="0px"
   viewBox="0 0 16 16"
   enable-background="new 0 0 16 16"
   xml:space="preserve"
   sodipodi:docname="close-dark.svg"
   inkscape:version="0.92.1 r15371"><metadata
   id="metadata9"><rdf:RDF><cc:Work
       rdf:about=""><dc:format>image/svg+xml</dc:format><dc:type
         rdf:resource="http://purl.org/dc/dcmitype/StillImage" /></cc:Work></rdf:RDF></metadata><defs
   id="defs7" /><sodipodi:namedview
   pagecolor="#ffffff"
   bordercolor="#666666"
   borderopacity="1"
   objecttolerance="10"
   gridtolerance="10"
   guidetolerance="10"
   inkscape:pageopacity="0"
   inkscape:pageshadow="2"
   inkscape:window-width="1147"
   inkscape:window-height="650"
   id="namedview5"
   showgrid="false"
   inkscape:zoom="14.75"
   inkscape:cx="8"
   inkscape:cy="8"
   inkscape:window-x="0"
   inkscape:window-y="0"
   inkscape:window-maximized="0"
   inkscape:current-layer="Слой_1" />
<path
   opacity="0.3"
   fill="#5E5E5E"
   d="M11.4,8l4-4C16.5,2.9,16,2,15,1.1c-0.9-0.9-1.9-1.5-3-0.4l-4,4l-4-4C2.9-0.5,2,0,1.1,0.9  C0.2,1.9-0.4,2.9,0.7,4l4,4l-4,4c-1.1,1.1-0.8,2.1,0.2,3C1.8,16,2.9,16.5,4,15.4l4-4l4,4c1.1,1.1,2,0.4,2.9-0.6  c0.9-0.9,1.6-1.7,0.4-2.8L11.4,8z"
   id="path2"
   style="fill:#000000;fill-opacity:1;opacity:1" />
</svg>