<svg height='300px' width='300px'  fill="#047bbf" xmlns="http://www.w3.org/2000/svg" xmlns:xlink="http://www.w3.org/1999/xlink" version="1.1" x="0px" y="0px" viewBox="0 0 100 100" style="enable-background:new 0 0 100 100;" xml:space="preserve"><g><path d="M54.3,12.1c-4.5,0-8.8,0.7-13,2.2l-1.1-2c-0.8-1.5-2.2-2.6-3.9-3c-1.8-0.5-3.8-0.1-5.5,1C13.8,21.3,5.1,38.9,6.3,59.7   c0.1,2,1,3.8,2.5,5c1.1,0.9,2.4,1.4,3.8,1.4c0.3,0,0.6,0,1-0.1l3.8-0.6c5.8,15.3,20.5,25.6,36.9,25.6c21.8,0,39.4-17.7,39.4-39.4   C93.8,29.7,76.1,12.1,54.3,12.1z M13.3,63.8c-1.1,0.2-2.3-0.1-3.1-0.8c-1-0.8-1.6-2.1-1.7-3.4c-1.6-25.6,12-40,23.6-47.6   c0.8-0.5,1.8-0.8,2.7-0.8c0.4,0,0.7,0,1.1,0.1c0.8,0.2,1.8,0.7,2.5,2l4.3,8c1.2,2.1,0.7,4.8-1.2,6.3c-10,8.4-14.3,17.1-15,30.1   c-0.1,2.4-1.9,4.4-4.3,4.8L13.3,63.8z M34.4,44.5c0,2.4-1.9,4.3-4.3,4.3c0,0-0.1,0-0.1,0c0.7-2.7,1.6-5.2,2.8-7.5   C33.8,42,34.4,43.2,34.4,44.5z M54.3,88.8c-15.4,0-29.2-9.5-34.8-23.8l3-0.5c3.4-0.5,6-3.4,6.1-6.8c0.1-2.5,0.4-4.8,0.8-7   c0.2,0,0.4,0,0.6,0c3.5,0,6.4-2.9,6.4-6.4c0-2.1-1-3.9-2.6-5.1c2.2-3.6,5.2-6.9,9-10.1c2.6-2.2,3.3-6,1.7-9l-2.2-4.1   c3.8-1.3,7.9-2,12-2c20.6,0,37.3,16.7,37.3,37.3S74.9,88.8,54.3,88.8z"></path><path d="M69,51.5c0-8.1-6.6-14.7-14.7-14.7c-8.1,0-14.7,6.6-14.7,14.7c0,8.1,6.6,14.7,14.7,14.7C62.4,66.2,69,59.6,69,51.5z    M54.3,64c-6.9,0-12.5-5.6-12.5-12.5c0-6.9,5.6-12.5,12.5-12.5c6.9,0,12.5,5.6,12.5,12.5C66.9,58.4,61.3,64,54.3,64z"></path><path d="M54.3,32.9c3.5,0,6.4-2.9,6.4-6.4s-2.9-6.4-6.4-6.4S48,23,48,26.5S50.8,32.9,54.3,32.9z M54.3,22.2c2.4,0,4.3,1.9,4.3,4.3   s-1.9,4.3-4.3,4.3c-2.4,0-4.3-1.9-4.3-4.3S52,22.2,54.3,22.2z"></path><path d="M70.8,64.7c-3.5,0-6.4,2.9-6.4,6.4s2.9,6.4,6.4,6.4s6.4-2.9,6.4-6.4S74.3,64.7,70.8,64.7z M70.8,75.4   c-2.4,0-4.3-1.9-4.3-4.3c0-2.4,1.9-4.3,4.3-4.3c2.4,0,4.3,1.9,4.3,4.3C75,73.5,73.1,75.4,70.8,75.4z"></path><path d="M78.5,38.1c-3.5,0-6.4,2.9-6.4,6.4s2.9,6.4,6.4,6.4c3.5,0,6.4-2.9,6.4-6.4S82.1,38.1,78.5,38.1z M78.5,48.7   c-2.4,0-4.3-1.9-4.3-4.3s1.9-4.3,4.3-4.3c2.4,0,4.3,1.9,4.3,4.3S80.9,48.7,78.5,48.7z"></path><path d="M37.3,64.7c-3.5,0-6.4,2.9-6.4,6.4s2.9,6.4,6.4,6.4s6.4-2.9,6.4-6.4S40.8,64.7,37.3,64.7z M37.3,75.4   c-2.4,0-4.3-1.9-4.3-4.3c0-2.4,1.9-4.3,4.3-4.3s4.3,1.9,4.3,4.3C41.6,73.5,39.7,75.4,37.3,75.4z"></path></g></svg>