<?xml version="1.0"?>
<svg xmlns="http://www.w3.org/2000/svg" xmlns:xlink="http://www.w3.org/1999/xlink" xmlns:svgjs="http://svgjs.com/svgjs" version="1.1" width="512" height="512" x="0" y="0" viewBox="0 0 480 480" style="enable-background:new 0 0 512 512" xml:space="preserve" class=""><g><path xmlns="http://www.w3.org/2000/svg" d="m368 280c-17.671875 0-32 14.328125-32 32s14.328125 32 32 32 32-14.328125 32-32-14.328125-32-32-32zm0 48c-8.835938 0-16-7.164062-16-16s7.164062-16 16-16 16 7.164062 16 16-7.164062 16-16 16zm0 0" fill="#0039a6" data-original="#000000" style="" class=""/><path xmlns="http://www.w3.org/2000/svg" d="m472 288h-8v-88c0-4.078125-3.066406-7.503906-7.121094-7.953125l-69.4375-7.710937-78.089844-70.28125c-1.46875-1.320313-3.375-2.054688-5.351562-2.054688h-16v-104c0-4.417969-3.582031-8-8-8h-224c-2.121094 0-4.15625.84375-5.65625 2.34375l-48 48c-1.5 1.5-2.34375 3.535156-2.34375 5.65625v424h288v-144h20.710938c9.757812 24.175781 33.21875 40.003906 59.289062 40.003906s49.53125-15.828125 59.289062-40.003906h44.710938c4.417969 0 8-3.582031 8-8v-32c0-4.417969-3.582031-8-8-8zm-24-64h-32v-20.390625l32 3.558594zm-147.070312-96 77.71875 69.945312c1.242187 1.121094 2.808593 1.820313 4.472656 2.007813l16.878906 1.878906v30.167969c0 4.417969 3.582031 8 8 8h40v48h-20.710938c-9.757812-24.175781-33.21875-40.003906-59.289062-40.003906s-49.53125 15.828125-59.289062 40.003906h-20.710938v-72h64c3.234375 0 6.152344-1.949219 7.390625-4.9375s.550781-6.429688-1.734375-8.71875l-56-56c-1.5-1.5-3.535156-2.34375-5.65625-2.34375h-8v-16zm-12.929688 32h4.6875l40 40h-44.6875zm-240-132.6875v20.6875h-20.6875zm224 436.6875h-256v-80h256zm-256-96v-304h40c4.417969 0 8-3.582031 8-8v-40h208v352zm272-48v-16h16.550781c-.734375 5.308594-.734375 10.691406 0 16zm80 40c-26.507812 0-48-21.492188-48-48s21.492188-48 48-48 48 21.492188 48 48c-.027344 26.5-21.5 47.972656-48 48zm96-40h-32.550781c.734375-5.308594.734375-10.691406 0-16h32.550781zm0 0" fill="#0039a6" data-original="#000000" style="" class=""/><path xmlns="http://www.w3.org/2000/svg" d="m104 72c-39.765625 0-72 32.234375-72 72s32.234375 72 72 72 72-32.234375 72-72c-.042969-39.746094-32.253906-71.957031-72-72zm0 128c-27.804688-.054688-51.367188-20.484375-55.359375-48h15.359375v-16h-15.359375c1.324219-9.242188 4.957031-18.003906 10.558594-25.472656l7.128906 7.128906 11.3125-11.3125-7.128906-7.128906c7.472656-5.609375 16.238281-9.25 25.488281-10.574219v15.359375h16v-15.359375c9.242188 1.324219 18.003906 4.957031 25.472656 10.558594l-7.128906 7.128906 11.3125 11.3125 7.128906-7.128906c5.609375 7.472656 9.25 16.238281 10.574219 25.488281h-15.359375v16h15.359375c-3.992187 27.515625-27.554687 47.945312-55.359375 48zm0 0" fill="#0039a6" data-original="#000000" style="" class=""/><path xmlns="http://www.w3.org/2000/svg" d="m66.34375 170.339844 32-32 11.3125 11.3125-32 32zm0 0" fill="#0039a6" data-original="#000000" style="" class=""/><path xmlns="http://www.w3.org/2000/svg" d="m192 96h64v16h-64zm0 0" fill="#0039a6" data-original="#000000" style="" class=""/><path xmlns="http://www.w3.org/2000/svg" d="m192 128h48v16h-48zm0 0" fill="#0039a6" data-original="#000000" style="" class=""/><path xmlns="http://www.w3.org/2000/svg" d="m192 160h64v16h-64zm0 0" fill="#0039a6" data-original="#000000" style="" class=""/><path xmlns="http://www.w3.org/2000/svg" d="m176 80h80v-48h-80zm16-32h48v16h-48zm0 0" fill="#0039a6" data-original="#000000" style="" class=""/><path xmlns="http://www.w3.org/2000/svg" d="m144 32h16v16h-16zm0 0" fill="#0039a6" data-original="#000000" style="" class=""/><path xmlns="http://www.w3.org/2000/svg" d="m112 32h16v16h-16zm0 0" fill="#0039a6" data-original="#000000" style="" class=""/><path xmlns="http://www.w3.org/2000/svg" d="m256 432h-8v-32h-16v32h-16v-16h-16v16h-16v-32h-16v32h-16v-16h-16v16h-16v-32h-16v32h-16v-16h-16v16h-16v-32h-16v32h-8v16h224zm0 0" fill="#0039a6" data-original="#000000" style="" class=""/><path xmlns="http://www.w3.org/2000/svg" d="m32 352h48v-112h-48zm32-16h-16v-32h16zm0-80v32h-16v-32zm0 0" fill="#0039a6" data-original="#000000" style="" class=""/><path xmlns="http://www.w3.org/2000/svg" d="m224 208c-17.671875 0-32 14.328125-32 32s14.328125 32 32 32 32-14.328125 32-32-14.328125-32-32-32zm0 48c-7.230469.019531-13.570312-4.828125-15.445312-11.8125s1.179687-14.355469 7.445312-17.964844v13.777344h16v-13.777344c6.265625 3.609375 9.320312 10.980469 7.445312 17.964844s-8.214843 11.832031-15.445312 11.8125zm0 0" fill="#0039a6" data-original="#000000" style="" class=""/><path xmlns="http://www.w3.org/2000/svg" d="m224 288c-17.671875 0-32 14.328125-32 32s14.328125 32 32 32 32-14.328125 32-32-14.328125-32-32-32zm0 48c-8.835938 0-16-7.164062-16-16 .019531-1.382812.21875-2.757812.601562-4.089844l9.742188 9.746094 11.3125-11.3125-9.746094-9.742188c1.332032-.382812 2.707032-.582031 4.089844-.601562 8.835938 0 16 7.164062 16 16s-7.164062 16-16 16zm0 0" fill="#0039a6" data-original="#000000" style="" class=""/><path xmlns="http://www.w3.org/2000/svg" d="m96 352h48v-112h-48zm32-16h-16v-48h16zm0-80v16h-16v-16zm0 0" fill="#0039a6" data-original="#000000" style="" class=""/><path xmlns="http://www.w3.org/2000/svg" d="m160 240h16v16h-16zm0 0" fill="#0039a6" data-original="#000000" style="" class=""/><path xmlns="http://www.w3.org/2000/svg" d="m160 272h16v16h-16zm0 0" fill="#0039a6" data-original="#000000" style="" class=""/><path xmlns="http://www.w3.org/2000/svg" d="m160 304h16v16h-16zm0 0" fill="#0039a6" data-original="#000000" style="" class=""/><path xmlns="http://www.w3.org/2000/svg" d="m160 336h16v16h-16zm0 0" fill="#0039a6" data-original="#000000" style="" class=""/></g></svg>
