<?xml version="1.0"?>
<svg xmlns="http://www.w3.org/2000/svg" xmlns:xlink="http://www.w3.org/1999/xlink" xmlns:svgjs="http://svgjs.com/svgjs" version="1.1" width="512" height="512" x="0" y="0" viewBox="0 0 512 512" style="enable-background:new 0 0 512 512" xml:space="preserve" class=""><g><g xmlns="http://www.w3.org/2000/svg"><path d="m396.611 227.831c-7.055 0-13.732 1.646-19.674 4.565-7.404-14.544-22.511-24.536-39.919-24.536-7.883 0-15.292 2.055-21.733 5.647-7.94-12.555-21.938-20.917-37.861-20.917-5.193 0-10.177.898-14.819 2.531v-80.221c0-24.688-20.086-44.774-44.774-44.774s-44.774 20.085-44.774 44.774v185.13h-25.615c-42.085 0-76.448 34.238-76.601 76.237l-.226 24.04h24.843c53.329 0 96.715 43.387 96.715 96.716v14.977h197.864v-68.887l25.798-33.136c16.476-21.162 25.549-47.586 25.549-74.405v-62.967c.001-24.689-20.085-44.774-44.773-44.774zm14.819 107.741c0 20.185-6.83 40.074-19.231 56.003l-32.117 41.251v49.219h-138.834c-7.209-60.953-57.864-108.779-120.048-111.565 3.029-22.812 22.642-40.496 46.243-40.496h25.615v26.293h29.955v-241.376c0-8.171 6.648-14.819 14.82-14.819 8.171 0 14.819 6.648 14.819 14.819v160.685h29.955v-38.221c0-8.171 6.647-14.819 14.819-14.819 8.171 0 14.819 6.648 14.819 14.819v38.221h29.955v-22.952c0-8.171 6.648-14.819 14.82-14.819 8.171 0 14.818 6.648 14.818 14.819v22.952h29.955v-2.981c0-8.171 6.648-14.819 14.82-14.819 8.171 0 14.819 6.648 14.819 14.819v62.967z" fill="#ffffff" data-original="#000000" style="" class=""/><path d="m294.135 91.283h29.957v29.955h-29.957z" fill="#ffffff" data-original="#000000" style="" class=""/><path d="m111.571 91.283h29.957v29.955h-29.957z" fill="#ffffff" data-original="#000000" style="" class=""/><path d="m202.854 0h29.955v29.957h-29.955z" fill="#ffffff" data-original="#000000" style="" class=""/><path d="m267.399 26.737h29.957v29.955h-29.957z" transform="matrix(.707 -.707 .707 .707 53.206 211.883)" fill="#ffffff" data-original="#000000" style="" class=""/><path d="m138.308 26.736h29.955v29.957h-29.955z" transform="matrix(.707 -.707 .707 .707 15.401 120.608)" fill="#ffffff" data-original="#000000" style="" class=""/></g></g></svg>
