<?xml version="1.0"?>
<svg xmlns="http://www.w3.org/2000/svg" xmlns:xlink="http://www.w3.org/1999/xlink" xmlns:svgjs="http://svgjs.com/svgjs" version="1.1" width="512" height="512" x="0" y="0" viewBox="0 0 496 496" style="enable-background:new 0 0 512 512" xml:space="preserve"><g>
<g xmlns="http://www.w3.org/2000/svg">
	<g>
		<path d="M464,144V0h-80v48h-72.128c-0.648-8.376-5.52-15.768-13.136-19.576L273.888,16h-51.776l-24.848,12.424    c-7.608,3.808-12.48,11.2-13.136,19.576H112V0H32v144h80V96h40v94.112l-24,48V400h-16v-48H32v144h80v-48h94.472    c8.512,14.736,24.288,24,41.528,24s33.016-9.264,41.528-24H384v48h80V352h-80v48h-16V238.112l-24-48V96h40v48H464z M400,112h16V96    h-16V80h16V64h-16V48h16V32h-16V16h48v16h-16v16h16v16h-16v16h16v16h-16v16h16v16h-48V112z M96,32H80v16h16v16H80v16h16v16H80v16    h16v16H48v-16h16V96H48V80h16V64H48V48h16V32H48V16h48V32z M96,384H80v16h16v16H80v16h16v16H80v16h16v16H48v-16h16v-16H48v-16h16    v-16H48v-16h16v-16H48v-16h48V384z M400,464h16v-16h-16v-16h16v-16h-16v-16h16v-16h-16v-16h48v16h-16v16h16v16h-16v16h16v16h-16    v16h16v16h-48V464z M232,32h32v32h-32V32z M200,49.888c0-3.048,1.696-5.792,4.424-7.152L216,36.944V80h64V36.944l11.576,5.792    c2.728,1.36,4.424,4.104,4.424,7.152V120c0,4.408-3.592,8-8,8h-80c-4.408,0-8-3.592-8-8V49.888z M112,80V64h72v16H112z     M144,241.888l24-48V96h16v24c0,13.232,10.768,24,24,24h16v238.456c-7.184,4.16-13.272,10.168-17.528,17.544H144V241.888z     M384,416v16H279.392l-2.096,4.792C272.184,448.464,260.688,456,248,456s-24.184-7.536-29.296-19.208L216.608,432H112v-16h104.608    l2.096-4.792C223.816,399.536,235.312,392,248,392s24.184,7.536,29.296,19.208l2.096,4.792H384z M352,241.888V400h-62.472    c-4.264-7.384-10.352-13.384-17.528-17.544V352h-16v24.752c-2.624-0.448-5.28-0.752-8-0.752c-2.72,0-5.376,0.304-8,0.752V144h16    v192h16V144h16c13.232,0,24-10.768,24-24V96h16v97.888L352,241.888z M312,80V64h72v16H312z" fill="#0039a6" data-original="#000000" style=""/>
	</g>
</g>
<g xmlns="http://www.w3.org/2000/svg">
</g>
<g xmlns="http://www.w3.org/2000/svg">
</g>
<g xmlns="http://www.w3.org/2000/svg">
</g>
<g xmlns="http://www.w3.org/2000/svg">
</g>
<g xmlns="http://www.w3.org/2000/svg">
</g>
<g xmlns="http://www.w3.org/2000/svg">
</g>
<g xmlns="http://www.w3.org/2000/svg">
</g>
<g xmlns="http://www.w3.org/2000/svg">
</g>
<g xmlns="http://www.w3.org/2000/svg">
</g>
<g xmlns="http://www.w3.org/2000/svg">
</g>
<g xmlns="http://www.w3.org/2000/svg">
</g>
<g xmlns="http://www.w3.org/2000/svg">
</g>
<g xmlns="http://www.w3.org/2000/svg">
</g>
<g xmlns="http://www.w3.org/2000/svg">
</g>
<g xmlns="http://www.w3.org/2000/svg">
</g>
</g></svg>
