<?xml version="1.0"?>
<svg xmlns="http://www.w3.org/2000/svg" xmlns:xlink="http://www.w3.org/1999/xlink" xmlns:svgjs="http://svgjs.com/svgjs" version="1.1" width="512" height="512" x="0" y="0" viewBox="0 0 496 496" style="enable-background:new 0 0 512 512" xml:space="preserve"><g>
<g xmlns="http://www.w3.org/2000/svg">
	<g>
		<g>
			<path d="M200,283.792c-26.472,0-48,21.528-48,48v16H96v-40c0-15.752-25.856-21.336-48-21.336S0,292.04,0,307.792v80     c0,26.472,21.528,48,48,48h104v8c0,26.472,21.528,48,48,48h296v-208H200z M48,302.456c15.28,0,25.832,2.968,30.28,5.336     c-4.448,2.368-15,5.336-30.28,5.336c-15.28,0-25.832-2.968-30.28-5.336C22.168,305.424,32.72,302.456,48,302.456z M152,419.792     H48c-17.648,0-32-14.352-32-32v-63.328c9.192,3.288,21.048,4.664,32,4.664s22.808-1.376,32-4.664v23.328c0,8.824,7.176,16,16,16     h56V419.792z M480,475.792H216v-16h-16v16c-17.648,0-32-14.352-32-32v-112c0-17.648,14.352-32,32-32v144h16v-144h264V475.792z" fill="#0039a6" data-original="#000000" style=""/>
			<path d="M60.424,274.952l7.16-14.312C67.304,260.496,40,246.352,40,203.792c0-40.728,17.944-48.168,18.528-48.416l-5.064-15.168     c-1.2,0.4-29.464,10.424-29.464,63.584C24,256.136,58.936,274.208,60.424,274.952z" fill="#0039a6" data-original="#000000" style=""/>
			<path d="M59.504,109.176L64,115.792l4.44,6.656C69.56,121.696,96,103.576,96,59.792c0-45.24-28.264-55.184-29.472-55.584     l-5.056,15.168C61.656,19.44,80,26.488,80,59.792C80,94.624,60.344,108.6,59.504,109.176z" fill="#0039a6" data-original="#000000" style=""/>
			<path d="M82.224,235.656l15.168-5.064c-0.096-0.288-9.4-29.592,20.696-59.696c28.792-28.784,46.752-21.376,47.336-21.128     l7.16-14.312c-1.128-0.56-28.248-13.44-65.808,24.128C69.776,196.608,81.696,234.08,82.224,235.656z" fill="#0039a6" data-original="#000000" style=""/>
			<path d="M259.512,108.672c31.992-31.992,19.032-59.008,18.472-60.144l-14.368,7.04c0.336,0.744,8.024,18.352-15.416,41.792     c-24.608,24.624-48.4,20.608-49.408,20.432l-3.08,15.704c0.384,0.08,3.232,0.608,7.832,0.608     C215.04,134.104,237.424,130.776,259.512,108.672z" fill="#0039a6" data-original="#000000" style=""/>
			<path d="M120.84,232.216l14.312,7.16c0.144-0.28,14.288-27.584,56.848-27.584c40.728,0,48.168,17.944,48.416,18.528l15.168-5.064     c-0.4-1.2-10.424-29.464-63.584-29.464C139.656,195.792,121.584,230.728,120.84,232.216z" fill="#0039a6" data-original="#000000" style=""/>
			<path d="M336,267.792c45.24,0,55.184-28.264,55.584-29.472l-15.168-5.064c-0.064,0.192-7.112,18.536-40.416,18.536     c-34.832,0-48.808-19.656-49.384-20.496l-13.272,8.928C274.096,241.352,292.216,267.792,336,267.792z" fill="#0039a6" data-original="#000000" style=""/>
			<rect x="232" y="443.792" width="16" height="16" fill="#0039a6" data-original="#000000" style=""/>
			<rect x="264" y="443.792" width="200" height="16" fill="#0039a6" data-original="#000000" style=""/>
		</g>
	</g>
</g>
<g xmlns="http://www.w3.org/2000/svg">
</g>
<g xmlns="http://www.w3.org/2000/svg">
</g>
<g xmlns="http://www.w3.org/2000/svg">
</g>
<g xmlns="http://www.w3.org/2000/svg">
</g>
<g xmlns="http://www.w3.org/2000/svg">
</g>
<g xmlns="http://www.w3.org/2000/svg">
</g>
<g xmlns="http://www.w3.org/2000/svg">
</g>
<g xmlns="http://www.w3.org/2000/svg">
</g>
<g xmlns="http://www.w3.org/2000/svg">
</g>
<g xmlns="http://www.w3.org/2000/svg">
</g>
<g xmlns="http://www.w3.org/2000/svg">
</g>
<g xmlns="http://www.w3.org/2000/svg">
</g>
<g xmlns="http://www.w3.org/2000/svg">
</g>
<g xmlns="http://www.w3.org/2000/svg">
</g>
<g xmlns="http://www.w3.org/2000/svg">
</g>
</g></svg>
